<svg id="visual" viewBox="0 0 960 540" width="960" height="540" xmlns="http://www.w3.org/2000/svg" xmlns:xlink="http://www.w3.org/1999/xlink" version="1.1"><rect x="0" y="0" width="960" height="540" fill="#000000"></rect><g fill="#242424"><circle r="13" cx="284" cy="531"></circle><circle r="6" cx="653" cy="295"></circle><circle r="6" cx="57" cy="87"></circle><circle r="10" cx="321" cy="259"></circle><circle r="7" cx="53" cy="428"></circle><circle r="7" cx="823" cy="466"></circle><circle r="5" cx="454" cy="106"></circle><circle r="11" cx="598" cy="369"></circle><circle r="9" cx="235" cy="348"></circle><circle r="9" cx="291" cy="368"></circle><circle r="8" cx="96" cy="67"></circle><circle r="7" cx="384" cy="226"></circle><circle r="8" cx="681" cy="446"></circle><circle r="6" cx="528" cy="19"></circle><circle r="5" cx="382" cy="476"></circle><circle r="5" cx="308" cy="331"></circle><circle r="5" cx="96" cy="487"></circle><circle r="7" cx="140" cy="225"></circle><circle r="11" cx="860" cy="398"></circle><circle r="6" cx="748" cy="361"></circle><circle r="8" cx="358" cy="378"></circle><circle r="6" cx="812" cy="69"></circle><circle r="8" cx="25" cy="424"></circle><circle r="10" cx="435" cy="145"></circle><circle r="6" cx="908" cy="346"></circle><circle r="7" cx="101" cy="370"></circle><circle r="7" cx="933" cy="96"></circle><circle r="5" cx="925" cy="23"></circle><circle r="5" cx="946" cy="452"></circle><circle r="7" cx="873" cy="512"></circle><circle r="6" cx="845" cy="354"></circle><circle r="6" cx="49" cy="467"></circle><circle r="11" cx="267" cy="347"></circle><circle r="5" cx="595" cy="248"></circle><circle r="9" cx="356" cy="5"></circle><circle r="11" cx="247" cy="450"></circle><circle r="11" cx="191" cy="63"></circle><circle r="11" cx="298" cy="139"></circle><circle r="5" cx="128" cy="455"></circle><circle r="8" cx="138" cy="415"></circle><circle r="10" cx="919" cy="203"></circle><circle r="9" cx="626" cy="243"></circle><circle r="7" cx="898" cy="139"></circle><circle r="9" cx="43" cy="36"></circle><circle r="7" cx="887" cy="219"></circle><circle r="6" cx="120" cy="111"></circle><circle r="9" cx="151" cy="476"></circle><circle r="10" cx="160" cy="95"></circle><circle r="11" cx="511" cy="117"></circle><circle r="9" cx="443" cy="506"></circle><circle r="6" cx="248" cy="105"></circle><circle r="11" cx="420" cy="281"></circle><circle r="10" cx="109" cy="222"></circle><circle r="10" cx="343" cy="311"></circle><circle r="7" cx="828" cy="15"></circle><circle r="8" cx="843" cy="319"></circle><circle r="6" cx="557" cy="403"></circle><circle r="7" cx="221" cy="25"></circle><circle r="8" cx="583" cy="398"></circle><circle r="6" cx="427" cy="359"></circle><circle r="5" cx="690" cy="516"></circle><circle r="5" cx="60" cy="302"></circle><circle r="6" cx="938" cy="345"></circle><circle r="8" cx="643" cy="401"></circle><circle r="5" cx="521" cy="308"></circle><circle r="8" cx="396" cy="155"></circle><circle r="11" cx="584" cy="431"></circle><circle r="10" cx="276" cy="278"></circle><circle r="6" cx="600" cy="10"></circle><circle r="10" cx="847" cy="502"></circle><circle r="8" cx="505" cy="434"></circle><circle r="5" cx="674" cy="153"></circle><circle r="10" cx="169" cy="521"></circle><circle r="5" cx="738" cy="424"></circle><circle r="7" cx="596" cy="495"></circle><circle r="6" cx="521" cy="486"></circle><circle r="10" cx="536" cy="149"></circle><circle r="5" cx="944" cy="185"></circle><circle r="8" cx="168" cy="365"></circle><circle r="11" cx="587" cy="158"></circle><circle r="7" cx="56" cy="223"></circle><circle r="9" cx="623" cy="308"></circle><circle r="10" cx="789" cy="195"></circle><circle r="11" cx="31" cy="303"></circle><circle r="6" cx="231" cy="163"></circle><circle r="9" cx="719" cy="44"></circle><circle r="7" cx="868" cy="51"></circle><circle r="9" cx="255" cy="529"></circle><circle r="9" cx="664" cy="49"></circle><circle r="10" cx="808" cy="150"></circle><circle r="6" cx="947" cy="156"></circle><circle r="6" cx="520" cy="46"></circle><circle r="8" cx="761" cy="161"></circle><circle r="8" cx="367" cy="524"></circle><circle r="6" cx="275" cy="13"></circle><circle r="8" cx="734" cy="82"></circle><circle r="9" cx="117" cy="282"></circle><circle r="7" cx="351" cy="136"></circle><circle r="5" cx="169" cy="299"></circle><circle r="7" cx="300" cy="397"></circle><circle r="8" cx="317" cy="484"></circle><circle r="7" cx="317" cy="457"></circle><circle r="8" cx="810" cy="363"></circle><circle r="11" cx="639" cy="141"></circle><circle r="5" cx="951" cy="312"></circle><circle r="7" cx="842" cy="118"></circle><circle r="9" cx="194" cy="292"></circle><circle r="7" cx="807" cy="261"></circle><circle r="6" cx="931" cy="401"></circle><circle r="11" cx="297" cy="104"></circle><circle r="10" cx="476" cy="18"></circle><circle r="10" cx="923" cy="310"></circle><circle r="9" cx="876" cy="333"></circle><circle r="5" cx="400" cy="324"></circle><circle r="9" cx="117" cy="151"></circle><circle r="10" cx="414" cy="430"></circle><circle r="5" cx="743" cy="450"></circle><circle r="5" cx="509" cy="332"></circle><circle r="9" cx="743" cy="17"></circle><circle r="11" cx="559" cy="66"></circle><circle r="8" cx="808" cy="121"></circle><circle r="9" cx="809" cy="391"></circle><circle r="9" cx="684" cy="489"></circle><circle r="5" cx="667" cy="9"></circle><circle r="10" cx="819" cy="297"></circle><circle r="11" cx="349" cy="281"></circle><circle r="10" cx="707" cy="430"></circle><circle r="11" cx="681" cy="276"></circle><circle r="8" cx="666" cy="97"></circle><circle r="5" cx="431" cy="254"></circle><circle r="8" cx="412" cy="112"></circle><circle r="10" cx="298" cy="427"></circle><circle r="10" cx="527" cy="232"></circle><circle r="8" cx="17" cy="168"></circle><circle r="11" cx="17" cy="100"></circle><circle r="11" cx="64" cy="252"></circle><circle r="6" cx="464" cy="529"></circle><circle r="9" cx="665" cy="535"></circle><circle r="5" cx="857" cy="249"></circle><circle r="8" cx="320" cy="51"></circle><circle r="8" cx="832" cy="170"></circle><circle r="9" cx="935" cy="122"></circle><circle r="7" cx="347" cy="402"></circle><circle r="6" cx="181" cy="182"></circle><circle r="6" cx="350" cy="214"></circle><circle r="8" cx="134" cy="345"></circle><circle r="10" cx="774" cy="42"></circle><circle r="10" cx="441" cy="414"></circle><circle r="6" cx="823" cy="94"></circle><circle r="6" cx="74" cy="535"></circle><circle r="10" cx="696" cy="302"></circle><circle r="11" cx="479" cy="334"></circle><circle r="5" cx="191" cy="404"></circle><circle r="5" cx="405" cy="73"></circle><circle r="6" cx="829" cy="48"></circle><circle r="11" cx="585" cy="195"></circle><circle r="10" cx="41" cy="347"></circle><circle r="5" cx="424" cy="17"></circle><circle r="11" cx="208" cy="533"></circle><circle r="7" cx="355" cy="77"></circle><circle r="8" cx="128" cy="529"></circle><circle r="7" cx="704" cy="16"></circle><circle r="7" cx="746" cy="321"></circle><circle r="5" cx="583" cy="275"></circle><circle r="10" cx="938" cy="251"></circle><circle r="11" cx="758" cy="121"></circle><circle r="8" cx="400" cy="397"></circle><circle r="8" cx="768" cy="491"></circle><circle r="11" cx="411" cy="491"></circle><circle r="11" cx="791" cy="416"></circle><circle r="11" cx="810" cy="492"></circle><circle r="8" cx="347" cy="467"></circle><circle r="10" cx="497" cy="196"></circle><circle r="5" cx="693" cy="406"></circle><circle r="10" cx="314" cy="524"></circle><circle r="11" cx="16" cy="499"></circle><circle r="6" cx="517" cy="360"></circle><circle r="9" cx="646" cy="182"></circle><circle r="6" cx="719" cy="198"></circle><circle r="5" cx="752" cy="398"></circle><circle r="9" cx="497" cy="159"></circle><circle r="8" cx="448" cy="333"></circle><circle r="9" cx="208" cy="229"></circle><circle r="6" cx="219" cy="91"></circle><circle r="10" cx="2" cy="438"></circle><circle r="5" cx="600" cy="326"></circle><circle r="8" cx="270" cy="52"></circle><circle r="7" cx="233" cy="474"></circle><circle r="10" cx="565" cy="319"></circle><circle r="8" cx="661" cy="226"></circle><circle r="11" cx="255" cy="395"></circle><circle r="5" cx="42" cy="274"></circle><circle r="11" cx="125" cy="29"></circle><circle r="7" cx="62" cy="117"></circle><circle r="11" cx="913" cy="51"></circle><circle r="11" cx="164" cy="161"></circle><circle r="5" cx="710" cy="163"></circle><circle r="9" cx="746" cy="55"></circle><circle r="8" cx="405" cy="518"></circle><circle r="7" cx="485" cy="280"></circle><circle r="5" cx="642" cy="345"></circle><circle r="8" cx="481" cy="112"></circle><circle r="7" cx="138" cy="265"></circle><circle r="5" cx="235" cy="265"></circle><circle r="10" cx="282" cy="463"></circle><circle r="7" cx="781" cy="247"></circle><circle r="10" cx="767" cy="222"></circle><circle r="6" cx="745" cy="243"></circle><circle r="9" cx="274" cy="213"></circle><circle r="5" cx="116" cy="319"></circle><circle r="7" cx="5" cy="368"></circle><circle r="11" cx="315" cy="227"></circle><circle r="5" cx="242" cy="503"></circle><circle r="7" cx="845" cy="214"></circle><circle r="8" cx="898" cy="526"></circle><circle r="11" cx="114" cy="506"></circle><circle r="6" cx="631" cy="76"></circle><circle r="6" cx="885" cy="2"></circle><circle r="6" cx="458" cy="212"></circle><circle r="6" cx="270" cy="84"></circle><circle r="6" cx="695" cy="134"></circle><circle r="9" cx="437" cy="450"></circle><circle r="5" cx="484" cy="226"></circle><circle r="8" cx="201" cy="166"></circle><circle r="10" cx="461" cy="169"></circle><circle r="11" cx="619" cy="431"></circle><circle r="6" cx="326" cy="134"></circle><circle r="6" cx="373" cy="97"></circle><circle r="6" cx="536" cy="192"></circle><circle r="7" cx="562" cy="449"></circle><circle r="10" cx="272" cy="169"></circle><circle r="9" cx="467" cy="428"></circle><circle r="11" cx="674" cy="375"></circle><circle r="6" cx="62" cy="15"></circle><circle r="11" cx="791" cy="472"></circle><circle r="8" cx="3" cy="240"></circle><circle r="6" cx="904" cy="286"></circle><circle r="11" cx="425" cy="312"></circle><circle r="7" cx="141" cy="382"></circle><circle r="6" cx="419" cy="48"></circle><circle r="7" cx="766" cy="283"></circle><circle r="8" cx="914" cy="230"></circle><circle r="10" cx="602" cy="221"></circle><circle r="8" cx="574" cy="5"></circle><circle r="10" cx="377" cy="346"></circle><circle r="5" cx="12" cy="211"></circle><circle r="9" cx="67" cy="354"></circle><circle r="5" cx="592" cy="114"></circle><circle r="6" cx="401" cy="253"></circle><circle r="10" cx="893" cy="180"></circle><circle r="8" cx="941" cy="494"></circle><circle r="7" cx="814" cy="530"></circle><circle r="6" cx="536" cy="381"></circle><circle r="8" cx="189" cy="465"></circle><circle r="6" cx="366" cy="440"></circle><circle r="11" cx="769" cy="74"></circle><circle r="7" cx="243" cy="207"></circle><circle r="9" cx="491" cy="359"></circle><circle r="11" cx="648" cy="370"></circle><circle r="6" cx="434" cy="221"></circle><circle r="11" cx="63" cy="165"></circle><circle r="11" cx="793" cy="297"></circle><circle r="7" cx="433" cy="192"></circle><circle r="9" cx="197" cy="131"></circle><circle r="10" cx="29" cy="133"></circle><circle r="6" cx="896" cy="384"></circle><circle r="10" cx="513" cy="513"></circle><circle r="5" cx="732" cy="530"></circle><circle r="7" cx="740" cy="268"></circle><circle r="10" cx="793" cy="325"></circle><circle r="5" cx="482" cy="48"></circle><circle r="5" cx="730" cy="120"></circle><circle r="7" cx="865" cy="174"></circle><circle r="6" cx="142" cy="130"></circle><circle r="10" cx="51" cy="192"></circle><circle r="10" cx="461" cy="386"></circle><circle r="11" cx="330" cy="26"></circle><circle r="6" cx="226" cy="135"></circle><circle r="7" cx="323" cy="287"></circle><circle r="8" cx="5" cy="285"></circle><circle r="6" cx="41" cy="510"></circle><circle r="9" cx="615" cy="130"></circle><circle r="8" cx="323" cy="188"></circle><circle r="10" cx="185" cy="330"></circle><circle r="6" cx="507" cy="86"></circle><circle r="7" cx="261" cy="308"></circle><circle r="7" cx="596" cy="36"></circle><circle r="7" cx="877" cy="425"></circle><circle r="9" cx="454" cy="243"></circle><circle r="11" cx="340" cy="436"></circle><circle r="7" cx="15" cy="37"></circle><circle r="11" cx="79" cy="320"></circle><circle r="10" cx="554" cy="486"></circle><circle r="8" cx="487" cy="454"></circle><circle r="11" cx="742" cy="495"></circle><circle r="5" cx="703" cy="239"></circle><circle r="8" cx="222" cy="402"></circle><circle r="7" cx="707" cy="472"></circle><circle r="11" cx="947" cy="73"></circle><circle r="6" cx="599" cy="469"></circle><circle r="5" cx="207" cy="492"></circle><circle r="5" cx="85" cy="390"></circle><circle r="6" cx="256" cy="250"></circle><circle r="6" cx="349" cy="243"></circle><circle r="5" cx="625" cy="512"></circle><circle r="5" cx="155" cy="51"></circle><circle r="5" cx="857" cy="532"></circle><circle r="7" cx="640" cy="114"></circle><circle r="10" cx="947" cy="225"></circle><circle r="10" cx="484" cy="500"></circle><circle r="6" cx="701" cy="380"></circle><circle r="10" cx="656" cy="267"></circle><circle r="7" cx="693" cy="215"></circle><circle r="11" cx="788" cy="442"></circle><circle r="8" cx="553" cy="115"></circle><circle r="11" cx="11" cy="343"></circle><circle r="9" cx="405" cy="455"></circle><circle r="9" cx="947" cy="532"></circle><circle r="10" cx="761" cy="521"></circle><circle r="11" cx="466" cy="78"></circle><circle r="7" cx="202" cy="370"></circle><circle r="11" cx="722" cy="304"></circle><circle r="10" cx="397" cy="27"></circle><circle r="7" cx="93" cy="105"></circle><circle r="10" cx="885" cy="469"></circle><circle r="11" cx="212" cy="438"></circle><circle r="5" cx="710" cy="68"></circle><circle r="9" cx="561" cy="370"></circle><circle r="6" cx="687" cy="340"></circle><circle r="11" cx="652" cy="425"></circle><circle r="6" cx="378" cy="273"></circle><circle r="5" cx="701" cy="101"></circle><circle r="9" cx="1" cy="464"></circle><circle r="11" cx="594" cy="67"></circle><circle r="9" cx="71" cy="449"></circle><circle r="9" cx="662" cy="324"></circle><circle r="8" cx="257" cy="425"></circle><circle r="10" cx="357" cy="161"></circle><circle r="10" cx="864" cy="21"></circle><circle r="9" cx="566" cy="509"></circle><circle r="10" cx="213" cy="322"></circle><circle r="8" cx="192" cy="37"></circle><circle r="10" cx="122" cy="83"></circle><circle r="7" cx="24" cy="534"></circle><circle r="8" cx="243" cy="69"></circle><circle r="6" cx="552" cy="226"></circle><circle r="8" cx="256" cy="145"></circle><circle r="11" cx="952" cy="274"></circle><circle r="10" cx="43" cy="65"></circle><circle r="6" cx="597" cy="537"></circle><circle r="8" cx="175" cy="488"></circle><circle r="11" cx="777" cy="346"></circle><circle r="6" cx="89" cy="144"></circle><circle r="5" cx="491" cy="389"></circle><circle r="7" cx="168" cy="447"></circle><circle r="11" cx="915" cy="474"></circle><circle r="11" cx="142" cy="505"></circle><circle r="10" cx="170" cy="238"></circle><circle r="8" cx="509" cy="407"></circle><circle r="10" cx="533" cy="535"></circle><circle r="9" cx="817" cy="426"></circle><circle r="11" cx="96" cy="424"></circle><circle r="9" cx="725" cy="401"></circle><circle r="8" cx="288" cy="254"></circle><circle r="5" cx="867" cy="278"></circle><circle r="11" cx="553" cy="270"></circle><circle r="8" cx="298" cy="173"></circle><circle r="6" cx="449" cy="288"></circle><circle r="8" cx="842" cy="439"></circle><circle r="5" cx="83" cy="199"></circle><circle r="8" cx="940" cy="46"></circle><circle r="5" cx="452" cy="32"></circle><circle r="5" cx="162" cy="402"></circle><circle r="8" cx="489" cy="306"></circle><circle r="7" cx="538" cy="344"></circle><circle r="5" cx="339" cy="512"></circle><circle r="5" cx="631" cy="35"></circle><circle r="9" cx="373" cy="307"></circle><circle r="9" cx="384" cy="374"></circle><circle r="10" cx="897" cy="256"></circle><circle r="10" cx="418" cy="170"></circle><circle r="8" cx="185" cy="10"></circle><circle r="8" cx="924" cy="438"></circle><circle r="7" cx="957" cy="390"></circle><circle r="8" cx="644" cy="468"></circle><circle r="10" cx="721" cy="340"></circle><circle r="9" cx="38" cy="380"></circle><circle r="9" cx="29" cy="248"></circle><circle r="8" cx="331" cy="381"></circle><circle r="10" cx="301" cy="26"></circle><circle r="10" cx="508" cy="265"></circle><circle r="7" cx="362" cy="42"></circle><circle r="10" cx="170" cy="273"></circle><circle r="10" cx="596" cy="299"></circle><circle r="10" cx="896" cy="496"></circle><circle r="8" cx="457" cy="478"></circle><circle r="5" cx="878" cy="106"></circle><circle r="8" cx="819" cy="194"></circle><circle r="7" cx="630" cy="211"></circle><circle r="9" cx="778" cy="101"></circle><circle r="7" cx="196" cy="104"></circle><circle r="7" cx="439" cy="74"></circle><circle r="11" cx="5" cy="402"></circle><circle r="9" cx="92" cy="173"></circle></g></svg>