<svg id="visual" viewBox="0 0 960 540" width="960" height="540" xmlns="http://www.w3.org/2000/svg" xmlns:xlink="http://www.w3.org/1999/xlink" version="1.1"><rect x="0" y="0" width="960" height="540" fill="#000000"></rect><g fill="#242424"><circle r="13" cx="523" cy="151"></circle><circle r="1" cx="386" cy="396"></circle><circle r="2" cx="813" cy="411"></circle><circle r="3" cx="315" cy="363"></circle><circle r="5" cx="263" cy="219"></circle><circle r="2" cx="770" cy="203"></circle><circle r="2" cx="451" cy="39"></circle><circle r="11" cx="111" cy="174"></circle><circle r="4" cx="863" cy="453"></circle><circle r="11" cx="249" cy="522"></circle><circle r="8" cx="791" cy="505"></circle><circle r="0" cx="625" cy="501"></circle><circle r="0" cx="659" cy="509"></circle><circle r="10" cx="157" cy="86"></circle><circle r="3" cx="286" cy="526"></circle><circle r="0" cx="329" cy="435"></circle><circle r="8" cx="931" cy="519"></circle><circle r="2" cx="756" cy="226"></circle><circle r="11" cx="171" cy="361"></circle><circle r="9" cx="694" cy="145"></circle><circle r="3" cx="481" cy="422"></circle><circle r="8" cx="270" cy="32"></circle><circle r="1" cx="360" cy="92"></circle><circle r="4" cx="18" cy="208"></circle><circle r="4" cx="436" cy="118"></circle><circle r="9" cx="809" cy="329"></circle><circle r="5" cx="386" cy="90"></circle><circle r="6" cx="456" cy="295"></circle><circle r="3" cx="940" cy="85"></circle><circle r="3" cx="837" cy="318"></circle><circle r="11" cx="649" cy="251"></circle><circle r="4" cx="606" cy="454"></circle><circle r="5" cx="55" cy="112"></circle><circle r="8" cx="214" cy="61"></circle><circle r="4" cx="421" cy="395"></circle><circle r="11" cx="275" cy="64"></circle><circle r="5" cx="85" cy="324"></circle><circle r="9" cx="414" cy="436"></circle><circle r="7" cx="183" cy="286"></circle><circle r="1" cx="819" cy="142"></circle><circle r="6" cx="447" cy="409"></circle><circle r="8" cx="604" cy="305"></circle><circle r="4" cx="153" cy="313"></circle><circle r="9" cx="678" cy="107"></circle><circle r="11" cx="425" cy="223"></circle><circle r="10" cx="657" cy="167"></circle><circle r="6" cx="550" cy="259"></circle><circle r="8" cx="558" cy="57"></circle><circle r="0" cx="627" cy="40"></circle><circle r="5" cx="307" cy="137"></circle><circle r="0" cx="585" cy="396"></circle><circle r="10" cx="594" cy="342"></circle><circle r="2" cx="238" cy="477"></circle><circle r="9" cx="104" cy="399"></circle><circle r="11" cx="881" cy="134"></circle><circle r="1" cx="651" cy="297"></circle><circle r="7" cx="867" cy="511"></circle><circle r="9" cx="752" cy="410"></circle><circle r="11" cx="219" cy="425"></circle><circle r="3" cx="908" cy="49"></circle><circle r="10" cx="885" cy="364"></circle><circle r="0" cx="359" cy="384"></circle><circle r="4" cx="529" cy="309"></circle><circle r="9" cx="326" cy="200"></circle><circle r="0" cx="356" cy="228"></circle><circle r="0" cx="291" cy="198"></circle><circle r="7" cx="917" cy="356"></circle><circle r="8" cx="76" cy="223"></circle><circle r="0" cx="225" cy="149"></circle><circle r="6" cx="849" cy="115"></circle><circle r="1" cx="676" cy="241"></circle><circle r="8" cx="240" cy="442"></circle><circle r="8" cx="779" cy="170"></circle><circle r="4" cx="139" cy="372"></circle><circle r="10" cx="728" cy="192"></circle><circle r="1" cx="97" cy="63"></circle><circle r="1" cx="616" cy="174"></circle><circle r="5" cx="486" cy="457"></circle><circle r="10" cx="396" cy="371"></circle><circle r="11" cx="418" cy="309"></circle><circle r="6" cx="748" cy="453"></circle><circle r="0" cx="897" cy="90"></circle><circle r="5" cx="785" cy="231"></circle><circle r="3" cx="459" cy="102"></circle><circle r="10" cx="466" cy="243"></circle><circle r="7" cx="794" cy="124"></circle><circle r="11" cx="682" cy="273"></circle><circle r="11" cx="82" cy="376"></circle><circle r="8" cx="413" cy="19"></circle><circle r="7" cx="757" cy="100"></circle><circle r="1" cx="877" cy="106"></circle><circle r="8" cx="453" cy="338"></circle><circle r="10" cx="18" cy="259"></circle><circle r="0" cx="479" cy="204"></circle><circle r="10" cx="58" cy="192"></circle><circle r="10" cx="762" cy="494"></circle><circle r="2" cx="495" cy="344"></circle><circle r="2" cx="305" cy="339"></circle><circle r="8" cx="801" cy="440"></circle><circle r="5" cx="214" cy="228"></circle><circle r="5" cx="369" cy="55"></circle><circle r="5" cx="89" cy="130"></circle><circle r="10" cx="334" cy="304"></circle><circle r="10" cx="334" cy="160"></circle><circle r="11" cx="16" cy="378"></circle><circle r="9" cx="693" cy="216"></circle><circle r="0" cx="939" cy="207"></circle><circle r="9" cx="176" cy="22"></circle><circle r="3" cx="65" cy="157"></circle><circle r="8" cx="91" cy="258"></circle><circle r="6" cx="925" cy="460"></circle><circle r="3" cx="188" cy="504"></circle><circle r="2" cx="375" cy="309"></circle><circle r="5" cx="77" cy="481"></circle><circle r="3" cx="399" cy="169"></circle><circle r="4" cx="476" cy="390"></circle><circle r="11" cx="445" cy="478"></circle><circle r="11" cx="257" cy="149"></circle><circle r="2" cx="929" cy="139"></circle><circle r="10" cx="872" cy="160"></circle><circle r="6" cx="456" cy="366"></circle><circle r="2" cx="646" cy="193"></circle><circle r="8" cx="846" cy="16"></circle><circle r="2" cx="321" cy="66"></circle><circle r="11" cx="570" cy="232"></circle><circle r="9" cx="499" cy="122"></circle><circle r="9" cx="249" cy="387"></circle><circle r="2" cx="537" cy="206"></circle><circle r="3" cx="899" cy="421"></circle><circle r="3" cx="202" cy="31"></circle><circle r="5" cx="286" cy="93"></circle><circle r="3" cx="296" cy="239"></circle><circle r="10" cx="759" cy="328"></circle><circle r="9" cx="175" cy="450"></circle><circle r="7" cx="655" cy="452"></circle><circle r="5" cx="942" cy="111"></circle><circle r="10" cx="828" cy="495"></circle><circle r="6" cx="681" cy="59"></circle><circle r="0" cx="773" cy="365"></circle><circle r="8" cx="662" cy="136"></circle><circle r="8" cx="413" cy="48"></circle><circle r="2" cx="753" cy="526"></circle><circle r="8" cx="287" cy="416"></circle><circle r="5" cx="563" cy="348"></circle><circle r="2" cx="337" cy="487"></circle><circle r="2" cx="764" cy="53"></circle><circle r="3" cx="25" cy="60"></circle><circle r="8" cx="881" cy="213"></circle><circle r="5" cx="493" cy="28"></circle><circle r="1" cx="749" cy="29"></circle><circle r="4" cx="871" cy="323"></circle><circle r="4" cx="904" cy="259"></circle><circle r="4" cx="844" cy="87"></circle><circle r="5" cx="125" cy="466"></circle><circle r="6" cx="290" cy="381"></circle><circle r="3" cx="701" cy="36"></circle><circle r="5" cx="881" cy="241"></circle><circle r="9" cx="43" cy="514"></circle><circle r="9" cx="321" cy="521"></circle><circle r="10" cx="819" cy="523"></circle><circle r="5" cx="75" cy="431"></circle><circle r="4" cx="329" cy="230"></circle><circle r="3" cx="138" cy="270"></circle><circle r="3" cx="676" cy="484"></circle><circle r="6" cx="454" cy="517"></circle><circle r="2" cx="545" cy="434"></circle><circle r="10" cx="512" cy="523"></circle><circle r="1" cx="521" cy="254"></circle><circle r="8" cx="35" cy="160"></circle><circle r="3" cx="146" cy="448"></circle><circle r="2" cx="498" cy="223"></circle><circle r="5" cx="528" cy="104"></circle><circle r="7" cx="338" cy="133"></circle><circle r="4" cx="816" cy="90"></circle><circle r="0" cx="564" cy="491"></circle><circle r="0" cx="860" cy="289"></circle><circle r="11" cx="691" cy="523"></circle><circle r="10" cx="22" cy="16"></circle><circle r="5" cx="435" cy="269"></circle><circle r="1" cx="844" cy="192"></circle><circle r="4" cx="371" cy="439"></circle><circle r="7" cx="396" cy="494"></circle><circle r="11" cx="585" cy="439"></circle><circle r="11" cx="531" cy="370"></circle><circle r="7" cx="634" cy="98"></circle><circle r="6" cx="130" cy="121"></circle><circle r="1" cx="60" cy="69"></circle><circle r="0" cx="181" cy="176"></circle><circle r="1" cx="370" cy="476"></circle><circle r="5" cx="183" cy="418"></circle><circle r="8" cx="671" cy="327"></circle><circle r="4" cx="445" cy="167"></circle><circle r="6" cx="819" cy="42"></circle><circle r="5" cx="608" cy="381"></circle><circle r="8" cx="240" cy="47"></circle><circle r="5" cx="197" cy="326"></circle><circle r="7" cx="503" cy="83"></circle><circle r="6" cx="717" cy="166"></circle><circle r="9" cx="526" cy="412"></circle></g></svg>